<?xml version="1.0" standalone="no"?>
<!DOCTYPE svg PUBLIC "-//W3C//DTD SVG 20010904//EN"
 "http://www.w3.org/TR/2001/REC-SVG-20010904/DTD/svg10.dtd">
<svg version="1.0" xmlns="http://www.w3.org/2000/svg"
 width="406.000000pt" height="126.000000pt" viewBox="0 0 406.000000 126.000000"
 preserveAspectRatio="xMidYMid meet">
<metadata>
Created by potrace 1.15, written by Peter Selinger 2001-2017
</metadata>
<g transform="translate(0.000000,126.000000) scale(0.100000,-0.100000)"
fill="#000000" stroke="none">
<path d="M3218 1134 c-83 -20 -135 -49 -199 -113 -95 -95 -136 -199 -146 -371
-22 -395 213 -638 570 -592 129 17 189 44 267 121 110 109 151 222 151 420 0
180 -34 295 -117 398 -51 63 -142 119 -223 137 -84 19 -225 19 -303 0z m255
-188 c119 -49 186 -199 173 -383 -16 -213 -130 -334 -302 -320 -106 8 -175 60
-226 173 -20 43 -23 65 -23 179 0 159 15 212 83 286 77 83 192 109 295 65z"/>
<path d="M330 600 l0 -520 110 0 110 0 0 520 0 520 -110 0 -110 0 0 -520z"/>
<path d="M690 1028 l0 -93 255 3 c140 1 255 -1 255 -5 0 -5 -117 -155 -260
-335 l-260 -326 0 -96 0 -96 400 0 400 0 0 95 0 95 -265 2 -264 3 264 333 265
332 0 90 0 90 -395 0 -395 0 0 -92z"/>
<path d="M1610 600 l0 -520 110 0 110 0 0 520 0 520 -110 0 -110 0 0 -520z"/>
<path d="M2030 600 l0 -520 110 0 110 0 0 220 0 220 225 0 225 0 0 90 0 90
-225 0 -225 0 0 120 0 120 255 0 255 0 0 90 0 90 -365 0 -365 0 0 -520z"/>
</g>
</svg>
